<?xml version="1.0" standalone="no"?>
<!DOCTYPE svg PUBLIC "-//W3C//DTD SVG 20010904//EN"
 "http://www.w3.org/TR/2001/REC-SVG-20010904/DTD/svg10.dtd">
<svg version="1.0" xmlns="http://www.w3.org/2000/svg"
 width="193.000000pt" height="193.000000pt" viewBox="0 0 193.000000 193.000000"
 preserveAspectRatio="xMidYMid meet">
<metadata>
Created by potrace 1.14, written by Peter Selinger 2001-2017
</metadata>
<g transform="translate(0.000000,193.000000) scale(0.100000,-0.100000)"
fill="#000000" stroke="none">
<path d="M800 1808 c-14 -7 -33 -30 -43 -50 -16 -33 -17 -39 -3 -70 9 -18 24
-44 35 -58 11 -14 22 -34 25 -46 5 -18 0 -22 -41 -32 -56 -12 -121 -40 -179
-76 l-42 -26 -27 42 c-17 26 -30 62 -34 97 -9 74 -24 99 -74 122 -52 23 -70
23 -114 2 -46 -21 -73 -67 -73 -121 0 -80 51 -132 131 -132 30 0 56 -9 91 -31
l49 -32 -29 -31 c-46 -47 -89 -122 -112 -192 l-22 -64 -37 20 c-21 10 -50 35
-65 54 -53 71 -151 68 -196 -6 -67 -110 56 -226 168 -158 19 12 50 20 76 20
l43 0 1 -83 c1 -94 28 -194 72 -272 l29 -51 -63 -18 c-61 -17 -66 -17 -112 0
-33 11 -61 15 -86 10 -199 -37 -175 -330 27 -330 84 0 143 50 162 136 6 24 26
50 66 86 l58 53 52 -47 c51 -46 194 -124 228 -124 10 0 20 -4 23 -9 9 -14 -12
-70 -38 -102 -77 -91 50 -213 134 -129 32 32 36 68 12 114 -11 23 -23 55 -26
72 l-5 31 82 5 c71 5 164 29 239 62 13 6 23 -5 48 -54 25 -50 30 -69 25 -103
-7 -53 16 -103 64 -134 43 -29 89 -29 132 0 103 68 80 205 -40 240 -28 8 -71
33 -100 58 l-52 43 60 60 c32 34 76 87 96 119 31 49 40 57 58 51 30 -9 45 -22
52 -45 8 -25 55 -49 96 -49 22 0 41 10 65 34 96 96 -27 235 -138 155 -15 -10
-37 -19 -48 -19 -19 0 -20 4 -13 53 9 60 9 223 -1 261 l-6 26 69 0 c52 0 72
-4 82 -17 56 -67 203 -51 260 29 33 46 38 131 10 186 -70 137 -280 113 -321
-37 -8 -31 -18 -41 -67 -65 -33 -16 -59 -24 -61 -17 -8 24 -85 134 -121 174
l-39 42 23 39 c16 27 40 47 76 65 62 31 89 63 95 117 10 76 -59 154 -135 154
-108 0 -177 -122 -123 -214 15 -25 17 -39 10 -73 l-9 -43 -51 26 c-60 30 -186
64 -240 64 -36 0 -38 2 -38 31 0 17 9 42 20 56 28 35 26 95 -2 128 -27 31 -82
41 -118 23z m273 -403 c61 -39 70 -126 21 -184 -78 -94 -223 -31 -211 92 2 27
12 56 23 68 43 49 114 59 167 24z m-397 -394 c66 -40 63 -140 -5 -175 -47 -25
-79 -20 -117 18 -41 41 -46 89 -13 130 38 48 85 57 135 27z m553 -49 c67 -49
87 -123 52 -194 -51 -106 -193 -117 -258 -19 -31 45 -31 120 -1 169 41 67 145
89 207 44z"/>
</g>
</svg>
